<?xml version="1.0" standalone="no"?>
<!DOCTYPE svg PUBLIC "-//W3C//DTD SVG 20010904//EN"
 "http://www.w3.org/TR/2001/REC-SVG-20010904/DTD/svg10.dtd">
<svg version="1.0" xmlns="http://www.w3.org/2000/svg"
 width="1080.000000pt" height="1350.000000pt" viewBox="0 0 1080.000000 1350.000000"
 preserveAspectRatio="xMidYMid meet">

<g transform="translate(0.000000,1350.000000) scale(0.100000,-0.100000)"
fill="#000000" stroke="none">
<path d="M5110 9997 c-3 -3 -30 -8 -60 -11 -242 -22 -583 -105 -840 -205 -192
-75 -488 -233 -655 -350 -378 -264 -692 -594 -926 -973 -171 -275 -272 -507
-382 -873 -21 -70 -63 -277 -84 -420 -14 -97 -18 -180 -17 -435 1 -291 3 -327
27 -475 33 -203 55 -315 67 -340 5 -11 18 -54 30 -96 22 -84 63 -207 84 -254
8 -16 17 -41 21 -55 13 -42 132 -288 187 -384 148 -260 305 -465 527 -686 163
-163 185 -183 291 -266 77 -60 249 -184 256 -184 5 0 86 -51 94 -60 12 -12
303 -161 360 -184 25 -10 83 -34 130 -53 432 -177 987 -255 1480 -208 294 28
652 107 817 181 17 8 34 14 38 14 32 0 320 136 465 220 159 91 164 94 170 100
3 3 34 25 70 50 189 130 274 202 475 405 302 304 550 679 699 1060 26 66 51
130 57 143 18 44 81 268 100 352 10 47 31 157 45 245 25 149 27 182 27 480 0
299 -2 331 -26 480 -26 157 -58 316 -69 345 -4 8 -20 62 -37 120 -32 112 -65
213 -81 245 -5 11 -21 49 -36 85 -113 276 -312 597 -523 845 -185 218 -461
464 -671 599 -186 121 -459 267 -560 301 -3 1 -18 7 -33 13 -16 7 -31 12 -34
12 -3 0 -19 7 -36 14 -102 47 -345 116 -527 149 -120 23 -158 29 -260 44 -41
7 -655 15 -660 10z m-279 -482 c65 -34 89 -126 46 -176 -12 -15 -51 -48 -87
-75 -133 -98 -294 -252 -409 -391 -189 -228 -367 -586 -437 -878 -3 -11 -17
-85 -31 -165 -23 -128 -26 -172 -26 -370 0 -187 3 -246 21 -350 85 -486 277
-865 628 -1239 86 -92 117 -135 165 -237 49 -103 68 -193 70 -331 2 -171 -30
-297 -110 -433 -47 -78 -142 -185 -203 -225 -23 -17 -45 -33 -48 -36 -7 -8
-77 -45 -130 -68 -131 -57 -325 -76 -471 -47 -184 38 -312 109 -459 256 -295
295 -522 669 -663 1090 -151 452 -183 960 -91 1445 14 72 29 144 34 160 56
187 78 253 107 330 107 276 274 562 461 785 374 447 844 757 1402 924 174 52
186 54 231 31z m1159 -240 c37 -19 60 -63 60 -114 0 -37 -8 -49 -85 -133 -147
-160 -233 -307 -285 -488 -11 -41 -26 -93 -33 -115 -8 -26 -12 -114 -12 -245
0 -196 1 -209 28 -300 70 -233 145 -370 293 -531 219 -238 307 -367 415 -604
52 -117 84 -221 126 -425 23 -107 23 -505 0 -610 -49 -235 -85 -345 -163 -502
-54 -111 -155 -271 -219 -349 -74 -90 -233 -243 -320 -309 -133 -100 -240
-161 -420 -241 -103 -45 -255 -85 -454 -119 -93 -16 -161 32 -161 114 0 46 7
59 75 131 64 68 124 146 174 228 22 37 41 69 41 71 0 3 13 33 29 68 26 56 70
192 87 267 3 14 8 96 11 181 4 120 2 176 -11 245 -48 263 -150 462 -337 660
-171 182 -251 292 -344 476 -83 166 -125 292 -171 514 -21 101 -29 398 -15
525 46 397 227 782 505 1068 276 285 619 465 1021 537 96 18 131 17 165 0z
m1040 -294 c146 -30 276 -105 408 -235 199 -194 379 -442 524 -721 66 -127
176 -414 204 -535 7 -30 22 -93 34 -140 30 -129 61 -377 67 -550 8 -231 -29
-534 -100 -812 -19 -72 -87 -280 -97 -293 -4 -5 -13 -28 -20 -50 -24 -75 -179
-367 -256 -483 -283 -424 -668 -764 -1121 -990 -203 -101 -552 -222 -641 -222
-91 0 -152 103 -106 178 9 15 58 57 109 95 366 268 658 686 795 1140 41 133
37 116 76 337 2 14 9 88 15 165 10 141 -2 449 -20 498 -5 12 -11 47 -15 77 -9
73 -70 283 -113 395 -109 278 -260 513 -476 742 -190 202 -253 342 -262 583
-9 256 103 499 303 659 162 129 313 180 522 176 63 -1 140 -8 170 -14z"/>
</g>
</svg>
